<mxfile host="app.diagrams.net" modified="2023-12-17T20:31:52.000Z" agent="Mozilla/5.0 (Macintosh; Intel Mac OS X 10_15_7) AppleWebKit/537.36 (KHTML, like Gecko) Chrome/120.0.0.0 Safari/537.36" version="22.1.11" etag="oOFKAK64tgAcRRQJcNPe" type="github">
  <diagram name="Page-1" id="yi5aLsMQ7-UEHdgmfrwt">
    <mxGraphModel>
      <root>
        <mxCell id="0" />
        <mxCell id="1" parent="0" />
      </root>
    </mxGraphModel>
  </diagram>
</mxfile>
